<svg width="169" height="56" viewBox="0 0 169 56" fill="none" xmlns="http://www.w3.org/2000/svg">
<g clip-path="url(#clip0_2039_722)">
<path d="M20.7271 0.925537H22.2238C27.4197 1.03801 32.5309 3.11872 36.202 6.80213C34.8465 8.1799 33.4628 9.50143 32.1356 10.8792C30.0742 9.02343 27.5891 7.58943 24.8782 7.08331C20.8683 6.23978 16.5478 6.99895 13.1874 9.27649C9.51632 11.6665 7.03131 15.7154 6.49477 20.0456C5.90175 24.3194 7.11602 28.8183 9.91166 32.1362C12.5943 35.3697 16.689 37.3942 20.9248 37.5347C24.8782 37.7597 29.0011 36.5506 31.8814 33.7951C34.1405 31.855 35.1854 28.9026 35.5243 26.0346C30.8366 26.0346 26.149 26.0627 21.4613 26.0346V20.2424H41.2002C42.2168 26.4564 40.7484 33.4577 36.0043 37.9003C32.8416 41.0495 28.4646 42.9052 24.0028 43.2708C19.6823 43.6925 15.2206 42.8771 11.3801 40.7964C6.77716 38.3502 3.10611 34.2169 1.29883 29.3525C-0.395498 24.8818 -0.423737 19.8206 1.15764 15.3218C2.59781 11.2166 5.36522 7.58943 8.92331 5.05883C12.3402 2.55636 16.4913 1.1786 20.7271 0.925537Z" fill="#CFCFDE"/>
<path d="M133.965 2.38672H140.008V42.5388C138.003 42.5388 135.97 42.5669 133.965 42.5106C133.993 29.1547 133.965 15.7707 133.965 2.38672Z" fill="#CFCFDE"/>
<path d="M54.6422 16.3048C58.3697 15.6019 62.4079 16.3892 65.4859 18.6105C68.2815 20.5787 70.23 23.6717 70.823 27.0458C71.5855 30.9541 70.6253 35.228 68.0839 38.321C65.3447 41.7794 60.8547 43.6352 56.4777 43.354C52.4678 43.1291 48.5708 41.1327 46.1988 37.8711C43.5161 34.272 42.8666 29.3233 44.335 25.1057C45.8034 20.5787 49.9545 17.1203 54.6422 16.3048ZM55.4893 21.6472C53.9644 22.0408 52.5525 22.9125 51.5359 24.1497C48.7967 27.4113 48.9662 32.7256 51.9877 35.7623C53.7103 37.5056 56.3083 38.321 58.7086 37.843C60.9394 37.4493 62.8879 35.9591 63.961 33.9909C65.8247 30.6448 65.2882 26.0336 62.4361 23.4186C60.6006 21.7316 57.9179 21.0286 55.4893 21.6472Z" fill="#CFCFDE"/>
<path d="M84.5752 16.305C88.8392 15.4895 93.4986 16.6705 96.6896 19.651C101.886 24.2904 102.45 32.9787 98.0168 38.3211C95.3342 41.6952 90.9854 43.551 86.6931 43.3542C82.5985 43.2417 78.5603 41.2172 76.1318 37.8712C73.3926 34.1878 72.7996 29.1266 74.3527 24.8246C75.9059 20.4383 79.9723 17.0923 84.5752 16.305ZM85.4223 21.6473C83.8975 22.041 82.4855 22.9126 81.4689 24.1217C78.758 27.3271 78.871 32.557 81.7795 35.6218C83.5021 37.4494 86.1848 38.3492 88.6698 37.8431C90.8724 37.4213 92.8491 35.9592 93.9222 33.991C95.7577 30.6169 95.2212 26.0056 92.3408 23.3906C90.5053 21.7036 87.8226 21.0287 85.4223 21.6473Z" fill="#CFCFDE"/>
<path d="M109.962 17.9357C113.21 15.9112 117.53 15.3489 121.032 17.0922C122.133 17.5702 123.037 18.3856 123.912 19.201C123.94 18.4418 123.912 17.6545 123.94 16.8672C125.832 16.8953 127.724 16.8672 129.645 16.8953V41.6951C129.616 45.4348 128.656 49.3993 125.945 52.1268C122.98 55.1353 118.434 56.0632 114.339 55.4446C109.962 54.7979 106.15 51.6206 104.456 47.5998C106.15 46.7844 107.929 46.1377 109.68 45.3785C110.668 47.6842 112.673 49.6524 115.186 50.1023C117.7 50.5522 120.608 49.9336 122.246 47.8529C123.997 45.7159 123.997 42.7917 123.912 40.1768C122.613 41.442 121.116 42.5668 119.309 42.9885C115.384 44.0851 111.063 42.7355 108.042 40.0924C104.992 37.4493 103.185 33.3723 103.354 29.3233C103.439 24.7402 106.037 20.3257 109.962 17.9357ZM115.808 21.5347C114.085 21.8159 112.475 22.7719 111.374 24.0934C108.72 27.2426 108.72 32.2757 111.402 35.3686C112.927 37.1963 115.384 38.2085 117.756 37.9555C119.987 37.7305 122.048 36.3246 123.15 34.3845C125.013 31.0947 124.703 26.624 122.189 23.756C120.636 21.9846 118.151 21.113 115.808 21.5347Z" fill="#CFCFDE"/>
<path d="M147.265 19.3697C150.654 16.2205 155.878 15.152 160.227 16.811C164.35 18.3574 166.976 22.2658 168.303 26.2866C162.176 28.8172 156.076 31.3197 149.948 33.8503C150.795 35.453 152.094 36.9151 153.845 37.5056C156.302 38.3772 159.239 38.0679 161.3 36.4371C162.119 35.8185 162.769 35.0031 163.39 34.2158C164.943 35.2562 166.496 36.2684 168.049 37.3087C165.847 40.5985 162.147 42.9042 158.166 43.2697C153.76 43.8039 149.073 42.1169 146.221 38.6865C141.533 33.2879 141.985 24.234 147.265 19.3697ZM150.287 24.5714C149.327 25.9492 148.932 27.6363 148.96 29.2952C153.054 27.6081 157.149 25.9211 161.244 24.2059C160.566 22.6313 158.928 21.6753 157.262 21.4223C154.579 20.9443 151.784 22.3783 150.287 24.5714Z" fill="#CFCFDE"/>
</g>
<defs>
<clipPath id="clip0_2039_722">
<rect width="168.303" height="54.6985" fill="white" transform="translate(0 0.919678)"/>
</clipPath>
</defs>
</svg>
