<svg width="132" height="52" viewBox="0 0 132 52" fill="none" xmlns="http://www.w3.org/2000/svg">
<path d="M104.461 16.8327V0.930908H107.705V14.6005C106.807 15.0519 105.584 15.9047 104.461 16.8327ZM98.8199 21.6234C99.8183 20.4194 100.842 19.2155 102.065 18.1872V0.930908H98.8199V21.6234ZM61.2319 34.2646C61.2319 38.5034 62.9041 42.5415 65.9741 45.6266C69.0191 48.6866 73.0374 50.3921 77.2804 50.3921C79.0775 50.3921 80.9244 50.0159 82.2223 49.3638V46.1032C80.6998 46.7553 78.8528 47.1315 77.2804 47.1315C70.3419 47.1315 64.5015 41.2624 64.5015 34.2896V31.3551C64.5015 24.3824 70.3668 18.5132 77.2804 18.5132C80.7248 18.5132 83.9444 19.8426 86.3405 22.2504C88.7365 24.6583 90.0594 27.8938 90.0594 31.3551V50.4172H93.304V30.728C93.1043 26.5645 91.3323 22.6768 88.3372 19.7673C85.3172 16.8578 81.3986 15.2526 77.2804 15.2526C73.0624 15.2526 69.044 16.9331 65.9741 20.0181C62.9291 23.0781 61.2319 27.1163 61.2319 31.3802V34.2646ZM109.802 26.4391C111.274 24.9592 113.171 24.1315 115.043 24.1315C119.062 24.1315 122.181 27.2918 122.181 31.3049V34.2395C122.181 38.2776 119.037 41.4129 115.043 41.4129C113.096 41.4129 111.224 40.3344 109.752 38.4031C108.454 36.6975 107.605 34.3649 107.481 32.2831L104.86 35.5437C105.384 38.0018 106.657 40.3845 108.479 42.0399C110.351 43.7455 112.697 44.6986 115.043 44.6986C120.784 44.6986 125.451 40.0083 125.451 34.2646V31.33C125.451 28.5961 124.353 25.9876 122.356 24.0061C120.359 21.9996 117.764 20.896 115.043 20.896C113.321 20.896 110.601 21.523 107.356 24.4576C106.482 25.3355 104.436 27.3922 103.188 28.8469C101.091 31.1544 98.0712 34.5906 95.4754 38.077V43.1686C98.3457 39.4565 99.993 37.3747 102.714 34.2395C105.11 31.3802 108.105 27.944 109.802 26.4391ZM33.1282 20.294V16.4314C30.1831 14.8513 26.9883 14.149 22.7453 14.149C18.4025 14.149 14.2843 15.7542 11.1644 18.6386C8.0196 21.5481 6.29744 25.3605 6.29744 29.4238V30.4772C6.29744 38.9047 13.0114 45.752 21.2977 45.752C28.0116 45.752 30.7821 43.5448 31.4809 42.8425V33.0356H20.499V36.2962H28.4359V41.2122H28.411C27.3877 41.6135 25.2662 42.4663 21.2977 42.4663C18.1529 42.4663 15.1828 41.2373 12.9864 38.9799C10.7651 36.7226 9.56705 33.7128 9.56705 30.4521V29.3987C9.56705 22.9025 15.6071 17.3845 22.7703 17.3845C27.6872 17.4096 30.6323 18.2373 33.1282 20.294ZM56.7892 24.1315C58.0122 24.1315 59.0605 24.3322 59.9091 24.7335C60.3084 23.7302 60.7327 22.8774 61.3317 21.8742C60.4582 21.2471 58.3367 20.8458 56.7892 20.8458C50.874 20.8458 46.4063 25.3355 46.4063 31.3049V50.3671H49.651V31.3049C49.651 27.0912 52.5712 24.1315 56.7892 24.1315ZM0.656738 29.4238V30.4772C0.656738 36.1457 2.8032 41.4129 6.67182 45.3507C10.5404 49.2635 15.7319 51.4205 21.2728 51.4205C25.7404 51.4205 29.6839 50.4172 33.0284 48.4107C35.7738 46.7553 36.9968 45.0999 37.0967 44.9494V27.3922H20.499V30.6528H33.852V43.9712C32.2796 45.5514 28.5607 48.1849 21.2977 48.1849C16.5555 48.1849 12.1628 46.354 8.91812 43.0432C5.69843 39.7575 3.92635 35.2929 3.92635 30.5023V29.4489C3.92635 24.9091 5.94802 20.3944 9.49217 17.0585C13.1112 13.6474 17.8284 11.7662 22.7703 11.7662C27.3877 11.7662 30.5824 12.4685 33.1532 14.0487V10.3616C30.4576 9.20789 27.2379 8.70625 22.7453 8.70625C10.7651 8.70625 0.656738 18.1872 0.656738 29.4238ZM87.6384 50.3671V31.3049C87.6384 25.4358 83.0709 20.8458 77.2305 20.8458C74.51 20.8458 71.9143 21.9494 69.9176 23.956C67.9209 25.9625 66.8227 28.571 66.8227 31.2798V34.2144C66.8227 39.8829 71.5898 44.6484 77.2056 44.6484C78.753 44.6484 80.8495 44.2722 82.1474 43.1937V39.8076C80.8745 40.836 79.0525 41.438 77.2056 41.438C73.2121 41.438 70.0673 38.2776 70.0673 34.2646V31.33C70.0673 27.2918 73.2121 24.1566 77.2056 24.1566C81.2239 24.1566 84.3438 27.3169 84.3438 31.33V50.3921H87.6384V50.3671ZM56.7892 18.4631C58.9856 18.4631 60.9074 18.9396 62.6296 19.9178C63.4283 18.8894 64.2519 18.0868 64.8759 17.4598C63.0539 16.0552 59.959 15.2024 56.8142 15.2024C52.2966 15.2024 48.2034 16.8327 45.2832 19.8175C42.388 22.752 40.7906 26.8404 40.7906 31.33V50.3921H44.0352V31.33C44.0103 23.7553 49.2516 18.4631 56.7892 18.4631ZM126.35 19.968C123.305 16.908 119.286 15.2024 115.043 15.2024C111.948 15.2024 108.853 16.3562 107.131 17.51C103.587 19.8676 100.692 22.4511 95.4505 29.2482V34.1392C99.8932 28.3202 104.086 23.7553 107.281 21.2221C109.378 19.5416 112.348 18.4881 115.043 18.4881C121.982 18.4881 127.822 24.3824 127.822 31.33V34.2646C127.822 37.7008 126.474 40.9363 124.028 43.3692C121.607 45.7771 118.413 47.1064 115.043 47.1064C109.353 47.1064 104.336 43.1686 102.988 37.8262L100.692 40.6103C102.364 46.2286 108.404 50.3671 115.043 50.3671C119.286 50.3671 123.28 48.6615 126.35 45.6015C129.395 42.5165 131.092 38.5034 131.092 34.2395V31.3049C131.092 27.0661 129.395 23.0279 126.35 19.968Z" fill="#CFCFDE"/>
</svg>
