<svg width="50" height="50" viewBox="0 0 50 50" fill="none" xmlns="http://www.w3.org/2000/svg">
<rect width="50" height="50" rx="8" fill="#23BDEE"/>
<g clip-path="url(#clip0_2039_780)">
<path d="M18.1252 11.25C17.5828 11.25 17.1431 11.6897 17.1431 12.2322V14.1964H19.1073V12.2322C19.1073 11.6897 18.6676 11.25 18.1252 11.25Z" fill="white"/>
<path d="M31.8747 11.25C31.3323 11.25 30.8926 11.6897 30.8926 12.2322V14.1964H32.8568V12.2322C32.8569 11.6897 32.4172 11.25 31.8747 11.25Z" fill="white"/>
<path d="M35.8036 14.1963H32.8571V18.1249C32.8571 18.6673 32.4174 19.107 31.875 19.107C31.3325 19.107 30.8928 18.6673 30.8928 18.1249V14.1963H19.1071V18.1249C19.1071 18.6673 18.6674 19.107 18.125 19.107C17.5825 19.107 17.1428 18.6673 17.1428 18.1249V14.1963H14.1964C12.5692 14.1963 11.25 15.5154 11.25 17.1427V35.8034C11.25 37.4307 12.5692 38.7499 14.1964 38.7499H35.8036C37.4308 38.7499 38.75 37.4307 38.75 35.8034V17.1427C38.75 15.5154 37.4308 14.1963 35.8036 14.1963ZM36.7857 35.8034C36.7857 36.3459 36.346 36.7856 35.8035 36.7856H14.1964C13.654 36.7856 13.2143 36.3459 13.2143 35.8034V23.0356H36.7857V35.8034Z" fill="white"/>
<path d="M19.1071 25H17.1428C16.6004 25 16.1606 25.4397 16.1606 25.9822C16.1606 26.5246 16.6004 26.9643 17.1428 26.9643H19.1071C19.6495 26.9643 20.0892 26.5246 20.0892 25.9822C20.0892 25.4397 19.6495 25 19.1071 25Z" fill="white"/>
<path d="M25.9821 25H24.0178C23.4754 25 23.0356 25.4397 23.0356 25.9822C23.0356 26.5246 23.4754 26.9643 24.0178 26.9643H25.9821C26.5245 26.9643 26.9642 26.5246 26.9642 25.9822C26.9642 25.4397 26.5245 25 25.9821 25Z" fill="white"/>
<path d="M32.8571 25H30.8928C30.3504 25 29.9106 25.4397 29.9106 25.9822C29.9106 26.5246 30.3504 26.9643 30.8928 26.9643H32.8571C33.3995 26.9643 33.8392 26.5246 33.8392 25.9822C33.8392 25.4397 33.3995 25 32.8571 25Z" fill="white"/>
<path d="M19.1071 28.9287H17.1428C16.6004 28.9287 16.1606 29.3684 16.1606 29.9109C16.1606 30.4533 16.6004 30.893 17.1428 30.893H19.1071C19.6495 30.893 20.0892 30.4533 20.0892 29.9109C20.0892 29.3684 19.6495 28.9287 19.1071 28.9287Z" fill="white"/>
<path d="M25.9821 28.9287H24.0178C23.4754 28.9287 23.0356 29.3684 23.0356 29.9109C23.0356 30.4533 23.4754 30.893 24.0178 30.893H25.9821C26.5245 30.893 26.9642 30.4533 26.9642 29.9109C26.9642 29.3684 26.5245 28.9287 25.9821 28.9287Z" fill="white"/>
<path d="M32.8571 28.9287H30.8928C30.3504 28.9287 29.9106 29.3684 29.9106 29.9109C29.9106 30.4533 30.3504 30.893 30.8928 30.893H32.8571C33.3995 30.893 33.8392 30.4533 33.8392 29.9109C33.8392 29.3684 33.3995 28.9287 32.8571 28.9287Z" fill="white"/>
<path d="M19.1071 32.8569H17.1428C16.6004 32.8569 16.1606 33.2967 16.1606 33.8391C16.1606 34.3815 16.6004 34.8212 17.1428 34.8212H19.1071C19.6495 34.8212 20.0892 34.3815 20.0892 33.839C20.0892 33.2966 19.6495 32.8569 19.1071 32.8569Z" fill="white"/>
<path d="M25.9821 32.8569H24.0178C23.4754 32.8569 23.0356 33.2967 23.0356 33.8391C23.0356 34.3815 23.4754 34.8213 24.0178 34.8213H25.9821C26.5245 34.8213 26.9642 34.3815 26.9642 33.8391C26.9642 33.2967 26.5245 32.8569 25.9821 32.8569Z" fill="white"/>
<path d="M32.8571 32.8569H30.8928C30.3504 32.8569 29.9106 33.2967 29.9106 33.8391C29.9106 34.3815 30.3504 34.8213 30.8928 34.8213H32.8571C33.3995 34.8213 33.8392 34.3815 33.8392 33.8391C33.8392 33.2967 33.3995 32.8569 32.8571 32.8569Z" fill="white"/>
</g>
<defs>
<clipPath id="clip0_2039_780">
<rect width="27.5" height="27.5" fill="white" transform="translate(11.25 11.25)"/>
</clipPath>
</defs>
</svg>
